<?xml version="1.0" encoding="UTF-8"?>
<svg xmlns="http://www.w3.org/2000/svg" width="384pt" height="512pt"
	 viewBox="0 0 384 512" version="1.1">
	<g id="surface1">
		<path style="fill-rule:nonzero;fill:rgb(16.078431%,80.784314%,16.078431%);fill-opacity:1;stroke-width:1;stroke-linecap:butt;stroke-linejoin:miter;stroke:rgb(22.352941%,49.803922%,0%);stroke-opacity:1;stroke-miterlimit:4;"
			  d="M 224 136 L 224 0 L 24 0 C 10.699219 0 0 10.699219 0 24 L 0 488 C 0 501.300781 10.699219 512 24 512 L 360 512 C 373.300781 512 384 501.300781 384 488 L 384 160 L 248 160 C 234.800781 160 224 149.199219 224 136 Z M 128 280 C 128 284.421875 124.421875 288 120 288 L 112 288 C 103.160156 288 96 295.160156 96 304 L 96 336 C 96 344.839844 103.160156 352 112 352 L 120 352 C 124.421875 352 128 355.578125 128 360 L 128 376 C 128 380.421875 124.421875 384 120 384 L 112 384 C 85.488281 384 64 362.511719 64 336 L 64 304 C 64 277.488281 85.488281 256 112 256 L 120 256 C 124.421875 256 128 259.578125 128 264 Z M 172.269531 384 L 160 384 C 155.578125 384 152 380.421875 152 376 L 152 360 C 152 355.578125 155.578125 352 160 352 L 172.269531 352 C 178.21875 352 182.679688 348.5 182.679688 345.378906 C 182.679688 344.078125 181.929688 342.71875 180.558594 341.539062 L 158.671875 322.769531 C 150.199219 315.550781 145.339844 305.289062 145.339844 294.628906 C 145.339844 273.328125 164.359375 256.011719 187.75 256.011719 L 200 256.011719 C 204.421875 256.011719 208 259.589844 208 264.011719 L 208 280.011719 C 208 284.429688 204.421875 288.011719 200 288.011719 L 187.730469 288.011719 C 181.78125 288.011719 177.320312 291.511719 177.320312 294.628906 C 177.320312 295.929688 178.070312 297.289062 179.441406 298.46875 L 201.328125 317.238281 C 209.800781 324.460938 214.660156 334.71875 214.660156 345.378906 C 214.671875 366.671875 195.660156 384 172.269531 384 Z M 256 264 L 256 284.800781 C 256 305.070312 261.699219 324.96875 272 341.679688 C 282.300781 324.980469 288 305.070312 288 284.800781 L 288 264 C 288 259.578125 291.578125 256 296 256 L 312 256 C 316.421875 256 320 259.578125 320 264 L 320 284.800781 C 320 320.28125 307.121094 353.691406 283.71875 378.890625 C 280.699219 382.140625 276.449219 384 272 384 C 267.550781 384 263.300781 382.140625 260.28125 378.890625 C 236.878906 353.691406 224 320.28125 224 284.800781 L 224 264 C 224 259.578125 227.578125 256 232 256 L 248 256 C 252.421875 256 256 259.578125 256 264 Z M 377 105 L 279.101562 7 C 274.601562 2.5 268.5 0 262.101562 0 L 256 0 L 256 128 L 384 128 L 384 121.898438 C 384 115.601562 381.5 109.5 377 105 Z M 377 105 "/>
	</g>
</svg>
