<?xml version="1.0" encoding="UTF-8"?>
<svg xmlns="http://www.w3.org/2000/svg" width="384pt" height="512pt"
	 viewBox="0 0 384 512" version="1.1">
	<g id="surface1">
		<path style="fill-rule:nonzero;fill:rgb(1.568627%,72.156863%,1.568627%);fill-opacity:1;stroke-width:1;stroke-linecap:butt;stroke-linejoin:miter;stroke:rgb(2.352941%,35.686275%,0%);stroke-opacity:1;stroke-miterlimit:4;"
			  d="M 224 136 L 224 0 L 24 0 C 10.699219 0 0 10.699219 0 24 L 0 488 C 0 501.300781 10.699219 512 24 512 L 360 512 C 373.300781 512 384 501.300781 384 488 L 384 160 L 248 160 C 234.800781 160 224 149.199219 224 136 Z M 284.101562 242.5 L 224 336 L 284.101562 429.5 C 289.199219 437.5 283.5 448 274 448 L 239.101562 448 C 234.699219 448 230.601562 445.601562 228.5 441.699219 C 208.898438 405.5 192 373 192 373 C 185.601562 387.800781 182 393 155.398438 441.800781 C 153.300781 445.699219 149.300781 448.101562 144.898438 448.101562 L 110 448.101562 C 100.5 448.101562 94.800781 437.601562 99.898438 429.601562 L 160.199219 336.101562 L 99.898438 242.601562 C 94.699219 234.601562 100.5 224.101562 110 224.101562 L 144.800781 224.101562 C 149.199219 224.101562 153.300781 226.5 155.398438 230.398438 C 181.5 279.199219 175.398438 264 192 298.898438 C 192 298.898438 198.101562 287.199219 228.601562 230.398438 C 230.699219 226.5 234.800781 224.101562 239.199219 224.101562 L 274 224.101562 C 283.5 224 289.199219 234.5 284.101562 242.5 Z M 384 121.898438 L 384 128 L 256 128 L 256 0 L 262.101562 0 C 268.5 0 274.601562 2.5 279.101562 7 L 377 105 C 381.5 109.5 384 115.601562 384 121.898438 Z M 384 121.898438 "/>
	</g>
</svg>
