<?xml version="1.0" encoding="UTF-8"?>
<svg xmlns="http://www.w3.org/2000/svg" width="384pt" height="512pt"
	 viewBox="0 0 384 512" version="1.1">
	<g id="surface1">
		<path style="fill-rule:nonzero;fill:rgb(92.156863%,10.196078%,10.196078%);fill-opacity:1;stroke-width:1;stroke-linecap:butt;stroke-linejoin:miter;stroke:rgb(53.72549%,0.784314%,0.784314%);stroke-opacity:1;stroke-miterlimit:4;"
			  d="M 181.898438 256.101562 C 176.898438 240.101562 177 209.199219 179.898438 209.199219 C 188.300781 209.199219 187.5 246.101562 181.898438 256.101562 Z M 180.199219 303.300781 C 172.5 323.5 162.898438 346.601562 151.800781 366 C 170.101562 359 190.800781 348.800781 214.699219 344.101562 C 202 334.5 189.800781 320.699219 180.199219 303.300781 Z M 86.101562 428.101562 C 86.101562 428.898438 99.300781 422.699219 121 387.898438 C 114.300781 394.199219 91.898438 412.398438 86.101562 428.101562 Z M 248 160 L 384 160 L 384 488 C 384 501.300781 373.300781 512 360 512 L 24 512 C 10.699219 512 0 501.300781 0 488 L 0 24 C 0 10.699219 10.699219 0 24 0 L 224 0 L 224 136 C 224 149.199219 234.800781 160 248 160 Z M 240 331.800781 C 220 319.601562 206.699219 302.800781 197.300781 278 C 201.800781 259.5 208.898438 231.398438 203.5 213.800781 C 198.800781 184.398438 161.101562 187.300781 155.699219 207 C 150.699219 225.300781 155.300781 251.101562 163.800781 284 C 152.199219 311.601562 135.101562 348.601562 123 369.800781 C 122.898438 369.800781 122.898438 369.898438 122.800781 369.898438 C 95.699219 383.800781 49.199219 414.398438 68.300781 437.898438 C 73.898438 444.800781 84.300781 447.898438 89.800781 447.898438 C 107.699219 447.898438 125.5 429.898438 150.898438 386.101562 C 176.699219 377.601562 205 367 229.898438 362.898438 C 251.601562 374.699219 277 382.398438 293.898438 382.398438 C 323.101562 382.398438 325.101562 350.398438 313.601562 339 C 299.699219 325.398438 259.300781 329.300781 240 331.800781 Z M 377 105 L 279 7 C 274.5 2.5 268.398438 0 262 0 L 256 0 L 256 128 L 384 128 L 384 121.898438 C 384 115.601562 381.5 109.5 377 105 Z M 302.898438 360.300781 C 307 357.601562 300.398438 348.398438 260.101562 351.300781 C 297.199219 367.101562 302.898438 360.300781 302.898438 360.300781 Z M 302.898438 360.300781 "/>
	</g>
</svg>
